<?xml version="1.0" encoding="utf-8"?>
<!-- Generator: Adobe Illustrator 24.1.3, SVG Export Plug-In . SVG Version: 6.00 Build 0)  -->
<svg version="1.1" id="Layer_1" xmlns="http://www.w3.org/2000/svg" xmlns:xlink="http://www.w3.org/1999/xlink" x="0px" y="0px"
	 viewBox="0 0 595.28 93.46" style="enable-background:new 0 0 595.28 93.46;" xml:space="preserve">
<style type="text/css">
	.st0{fill:#FFFFFF;}
</style>
<g>
	<g>
		<path class="st0" d="M136.08,72.81l-9.88-14.27h-0.59H115.3v14.27h-11.85V21.59h22.17c4.54,0,8.48,0.76,11.82,2.27
			c3.34,1.51,5.92,3.66,7.72,6.44s2.71,6.07,2.71,9.88c0,3.8-0.91,7.09-2.74,9.84c-1.83,2.75-4.43,4.86-7.79,6.33l11.49,16.46
			H136.08z M133.08,33.55c-1.85-1.54-4.56-2.3-8.12-2.3h-9.66V49.1h9.66c3.56,0,6.27-0.78,8.12-2.34c1.85-1.56,2.78-3.75,2.78-6.59
			C135.86,37.3,134.94,35.09,133.08,33.55z"/>
		<path class="st0" d="M194.76,56.34h-29.78c0.54,2.44,1.8,4.37,3.8,5.78c2,1.41,4.49,2.12,7.46,2.12c2.05,0,3.86-0.31,5.45-0.92
			c1.59-0.61,3.06-1.57,4.43-2.89l6.07,6.58c-3.71,4.25-9.12,6.37-16.24,6.37c-4.44,0-8.37-0.87-11.78-2.6
			c-3.41-1.73-6.05-4.13-7.9-7.21c-1.85-3.07-2.78-6.56-2.78-10.46c0-3.85,0.92-7.33,2.75-10.43c1.83-3.1,4.34-5.51,7.54-7.24
			c3.19-1.73,6.77-2.6,10.72-2.6c3.85,0,7.34,0.83,10.46,2.49c3.12,1.66,5.57,4.04,7.35,7.13c1.78,3.1,2.67,6.7,2.67,10.79
			C194.98,53.42,194.91,54.44,194.76,56.34z M168.06,43.69c-1.76,1.46-2.83,3.46-3.22,6h19.39c-0.39-2.49-1.46-4.47-3.22-5.96
			c-1.76-1.49-3.9-2.23-6.44-2.23C171.98,41.49,169.81,42.22,168.06,43.69z"/>
		<path class="st0" d="M231.42,37.21c3.27,2.9,4.9,7.28,4.9,13.13v22.46h-10.68v-4.9c-2.15,3.66-6.15,5.49-12,5.49
			c-3.02,0-5.64-0.51-7.87-1.54c-2.22-1.03-3.92-2.44-5.09-4.25s-1.76-3.85-1.76-6.15c0-3.66,1.38-6.54,4.14-8.63
			c2.75-2.1,7.01-3.15,12.77-3.15h9.07c0-2.49-0.76-4.4-2.27-5.74c-1.51-1.34-3.78-2.01-6.81-2.01c-2.1,0-4.16,0.33-6.18,0.99
			c-2.02,0.66-3.75,1.55-5.16,2.67l-4.1-7.98c2.15-1.51,4.72-2.68,7.72-3.51c3-0.83,6.08-1.24,9.25-1.24
			C223.47,32.86,228.15,34.31,231.42,37.21z M221.69,64.35c1.51-0.9,2.59-2.23,3.22-3.99v-4.03h-7.83c-4.68,0-7.02,1.54-7.02,4.61
			c0,1.46,0.57,2.62,1.72,3.47c1.15,0.85,2.72,1.28,4.72,1.28C218.44,65.71,220.17,65.26,221.69,64.35z"/>
		<path class="st0" d="M246.63,18.52h11.41v54.29h-11.41V18.52z"/>
		<path class="st0" d="M296.9,70.9c-1.12,0.83-2.5,1.45-4.13,1.87c-1.63,0.41-3.36,0.62-5.16,0.62c-4.68,0-8.3-1.2-10.86-3.59
			c-2.56-2.39-3.84-5.9-3.84-10.54V43.1h-6.07v-8.78h6.07v-9.58h11.41v9.58h9.8v8.78h-9.8v16.02c0,1.66,0.43,2.94,1.28,3.84
			c0.85,0.9,2.06,1.35,3.62,1.35c1.8,0,3.34-0.49,4.61-1.46L296.9,70.9z"/>
		<path class="st0" d="M303.93,26.13c-1.32-1.22-1.97-2.73-1.97-4.54c0-1.8,0.66-3.32,1.97-4.54c1.32-1.22,3.02-1.83,5.12-1.83
			c2.1,0,3.8,0.58,5.12,1.76c1.32,1.17,1.97,2.63,1.97,4.39c0,1.9-0.66,3.47-1.97,4.72c-1.32,1.24-3.02,1.87-5.12,1.87
			C306.95,27.95,305.24,27.34,303.93,26.13z M303.34,33.44h11.41v39.37h-11.41V33.44z"/>
		<path class="st0" d="M387.52,37.21c2.9,2.9,4.35,7.26,4.35,13.06v22.53h-11.41V52.02c0-3.12-0.65-5.45-1.94-6.99
			c-1.29-1.54-3.14-2.3-5.53-2.3c-2.68,0-4.81,0.87-6.37,2.6c-1.56,1.73-2.34,4.31-2.34,7.72v19.76h-11.41V52.02
			c0-6.19-2.49-9.29-7.46-9.29c-2.63,0-4.73,0.87-6.29,2.6c-1.56,1.73-2.34,4.31-2.34,7.72v19.76h-11.41V33.44h10.9v4.54
			c1.46-1.66,3.26-2.93,5.38-3.8c2.12-0.88,4.45-1.32,6.99-1.32c2.78,0,5.29,0.55,7.54,1.64c2.24,1.1,4.05,2.7,5.42,4.79
			c1.61-2.05,3.64-3.63,6.11-4.75c2.46-1.12,5.16-1.68,8.08-1.68C380.7,32.86,384.62,34.31,387.52,37.21z"/>
		<path class="st0" d="M440.89,56.34h-29.78c0.54,2.44,1.8,4.37,3.8,5.78c2,1.41,4.49,2.12,7.46,2.12c2.05,0,3.86-0.31,5.45-0.92
			c1.59-0.61,3.06-1.57,4.43-2.89l6.07,6.58c-3.71,4.25-9.12,6.37-16.24,6.37c-4.44,0-8.37-0.87-11.78-2.6
			c-3.41-1.73-6.05-4.13-7.9-7.21c-1.85-3.07-2.78-6.56-2.78-10.46c0-3.85,0.92-7.33,2.75-10.43c1.83-3.1,4.34-5.51,7.54-7.24
			c3.19-1.73,6.77-2.6,10.72-2.6c3.85,0,7.34,0.83,10.46,2.49c3.12,1.66,5.57,4.04,7.35,7.13c1.78,3.1,2.67,6.7,2.67,10.79
			C441.11,53.42,441.04,54.44,440.89,56.34z M414.19,43.69c-1.76,1.46-2.83,3.46-3.22,6h19.39c-0.39-2.49-1.46-4.47-3.22-5.96
			c-1.76-1.49-3.9-2.23-6.44-2.23C418.12,41.49,415.95,42.22,414.19,43.69z"/>
		<path class="st0" d="M460.18,69.99c-4.12-2.27-7.35-5.39-9.7-9.37c-2.34-3.97-3.51-8.45-3.51-13.43c0-4.97,1.17-9.45,3.51-13.42
			c2.34-3.97,5.59-7.1,9.73-9.37c4.14-2.27,8.78-3.4,13.9-3.4c4,0,7.66,0.67,10.98,2.01c3.32,1.34,6.15,3.33,8.49,5.96l-4.76,4.61
			c-3.85-4.05-8.66-6.07-14.41-6.07c-3.8,0-7.24,0.85-10.32,2.56c-3.07,1.71-5.48,4.06-7.2,7.06c-1.73,3-2.6,6.35-2.6,10.06
			c0,3.71,0.87,7.06,2.6,10.06c1.73,3,4.13,5.35,7.2,7.06c3.08,1.71,6.51,2.56,10.32,2.56c5.71,0,10.51-2.05,14.41-6.15l4.76,4.61
			c-2.34,2.63-5.18,4.64-8.53,6c-3.34,1.37-7.01,2.05-11.01,2.05C468.92,73.39,464.3,72.26,460.18,69.99z"/>
		<path class="st0" d="M548.01,21.59l-22.46,51.22h-7.24l-22.54-51.22h7.9l18.44,42.07l18.58-42.07H548.01z"/>
		<path class="st0" d="M552.33,71.96c-2.93-0.85-5.22-1.94-6.88-3.25l2.93-5.56c1.71,1.22,3.78,2.19,6.22,2.93
			c2.44,0.73,4.9,1.1,7.39,1.1c6.15,0,9.22-1.76,9.22-5.27c0-1.17-0.42-2.1-1.24-2.78c-0.83-0.68-1.87-1.18-3.11-1.5
			c-1.24-0.32-3.01-0.67-5.3-1.06c-3.12-0.49-5.67-1.05-7.65-1.68c-1.97-0.63-3.67-1.71-5.09-3.22c-1.41-1.51-2.12-3.64-2.12-6.37
			c0-3.51,1.46-6.33,4.39-8.45c2.93-2.12,6.85-3.18,11.78-3.18c2.58,0,5.17,0.32,7.76,0.95c2.58,0.63,4.71,1.49,6.37,2.56l-3,5.56
			c-3.17-2.05-6.9-3.07-11.19-3.07c-2.97,0-5.24,0.49-6.8,1.46c-1.56,0.98-2.34,2.27-2.34,3.88c0,1.27,0.44,2.27,1.32,3
			c0.88,0.73,1.96,1.27,3.25,1.61c1.29,0.34,3.11,0.73,5.45,1.17c3.12,0.54,5.64,1.11,7.57,1.72c1.93,0.61,3.57,1.65,4.94,3.11
			c1.36,1.46,2.05,3.51,2.05,6.15c0,3.51-1.5,6.31-4.5,8.38c-3,2.08-7.09,3.11-12.25,3.11C558.31,73.24,555.26,72.82,552.33,71.96z"
			/>
	</g>
	<path class="st0" d="M95.01,63.65l-3.42-0.93c-0.51-0.14-1.14-0.3-1.88-0.48c-6.29-1.56-19.38-4.79-27.99-14.43
		C54.08,39.24,50.85,30,49.48,23.76l-0.47-2.17L17.04,45.32l0.71,1.12c1.4,2.21,2.95,4.29,4.62,6.23c-0.89,0.66-1.78,1.32-2.67,1.98
		c2.91,3.72,9.3,10.83,19.94,15.18c8.98,3.68,16.67,3.61,20.95,3.53c10.1-0.19,22.41-3.12,31.3-8.01L95.01,63.65z M20.9,46.03
		l26.29-19.52c1.68,6.45,5.16,15.11,12.39,23.21c8.29,9.29,20.64,13.05,27.43,14.8c-1.48,0.61-2.99,1.11-4.51,1.53
		c-5.79-0.26-14.3-1.68-22.96-6.93c-11.29-6.84-16.57-16.4-18.47-20.33c-5.46,4.06-10.92,8.11-16.39,12.17
		C23.33,49.41,22.07,47.77,20.9,46.03z"/>
</g>
</svg>
